<svg xmlns="http://www.w3.org/2000/svg" width="1080" height="1350" viewBox="0 0 1080 1350" preserveAspectRatio="xMidYMid slice"><rect width="1080" height="1350" fill="#f3ebde"/><circle cx="35" cy="35" r="6.6" fill="#e9dcc6" opacity="0.41"/><circle cx="105" cy="35" r="6.6" fill="#e9dcc6" opacity="0.41"/><circle cx="175" cy="35" r="6.6" fill="#e9dcc6" opacity="0.41"/><circle cx="245" cy="35" r="6.6" fill="#e9dcc6" opacity="0.41"/><circle cx="315" cy="35" r="6.6" fill="#e9dcc6" opacity="0.41"/><circle cx="385" cy="35" r="6.6" fill="#e9dcc6" opacity="0.41"/><circle cx="455" cy="35" r="6.6" fill="#e9dcc6" opacity="0.41"/><circle cx="525" cy="35" r="6.6" fill="#e9dcc6" opacity="0.41"/><circle cx="595" cy="35" r="6.6" fill="#e9dcc6" opacity="0.41"/><circle cx="665" cy="35" r="6.6" fill="#e9dcc6" opacity="0.41"/><circle cx="735" cy="35" r="6.6" fill="#e9dcc6" opacity="0.41"/><circle cx="805" cy="35" r="6.6" fill="#e9dcc6" opacity="0.41"/><circle cx="875" cy="35" r="6.6" fill="#e9dcc6" opacity="0.41"/><circle cx="945" cy="35" r="6.6" fill="#e9dcc6" opacity="0.41"/><circle cx="1015" cy="35" r="6.6" fill="#e9dcc6" opacity="0.41"/><circle cx="35" cy="105" r="7.7" fill="#e9dcc6" opacity="0.44"/><circle cx="105" cy="105" r="7.7" fill="#e9dcc6" opacity="0.44"/><circle cx="175" cy="105" r="7.7" fill="#e9dcc6" opacity="0.44"/><circle cx="245" cy="105" r="7.7" fill="#e9dcc6" opacity="0.44"/><circle cx="315" cy="105" r="7.7" fill="#e9dcc6" opacity="0.44"/><circle cx="385" cy="105" r="7.7" fill="#e9dcc6" opacity="0.44"/><circle cx="455" cy="105" r="7.7" fill="#e9dcc6" opacity="0.44"/><circle cx="525" cy="105" r="7.7" fill="#e9dcc6" opacity="0.44"/><circle cx="595" cy="105" r="7.7" fill="#e9dcc6" opacity="0.44"/><circle cx="665" cy="105" r="7.7" fill="#e9dcc6" opacity="0.44"/><circle cx="735" cy="105" r="7.7" fill="#e9dcc6" opacity="0.44"/><circle cx="805" cy="105" r="7.7" fill="#e9dcc6" opacity="0.44"/><circle cx="875" cy="105" r="7.7" fill="#e9dcc6" opacity="0.44"/><circle cx="945" cy="105" r="7.7" fill="#e9dcc6" opacity="0.44"/><circle cx="1015" cy="105" r="7.7" fill="#e9dcc6" opacity="0.44"/><circle cx="35" cy="175" r="8.9" fill="#e9dcc6" opacity="0.46"/><circle cx="105" cy="175" r="8.9" fill="#e9dcc6" opacity="0.46"/><circle cx="175" cy="175" r="8.9" fill="#e9dcc6" opacity="0.46"/><circle cx="245" cy="175" r="8.9" fill="#e9dcc6" opacity="0.46"/><circle cx="315" cy="175" r="8.9" fill="#e9dcc6" opacity="0.46"/><circle cx="385" cy="175" r="8.9" fill="#e9dcc6" opacity="0.46"/><circle cx="455" cy="175" r="8.9" fill="#e9dcc6" opacity="0.46"/><circle cx="525" cy="175" r="8.9" fill="#e9dcc6" opacity="0.46"/><circle cx="595" cy="175" r="8.9" fill="#e9dcc6" opacity="0.46"/><circle cx="665" cy="175" r="8.9" fill="#e9dcc6" opacity="0.46"/><circle cx="735" cy="175" r="8.9" fill="#e9dcc6" opacity="0.46"/><circle cx="805" cy="175" r="8.9" fill="#e9dcc6" opacity="0.46"/><circle cx="875" cy="175" r="8.9" fill="#e9dcc6" opacity="0.46"/><circle cx="945" cy="175" r="8.9" fill="#e9dcc6" opacity="0.46"/><circle cx="1015" cy="175" r="8.9" fill="#e9dcc6" opacity="0.46"/><circle cx="35" cy="245" r="10.0" fill="#e9dcc6" opacity="0.49"/><circle cx="105" cy="245" r="10.0" fill="#e9dcc6" opacity="0.49"/><circle cx="175" cy="245" r="10.0" fill="#e9dcc6" opacity="0.49"/><circle cx="245" cy="245" r="10.0" fill="#e9dcc6" opacity="0.49"/><circle cx="315" cy="245" r="10.0" fill="#e9dcc6" opacity="0.49"/><circle cx="385" cy="245" r="10.0" fill="#e9dcc6" opacity="0.49"/><circle cx="455" cy="245" r="10.0" fill="#e9dcc6" opacity="0.49"/><circle cx="525" cy="245" r="10.0" fill="#e9dcc6" opacity="0.49"/><circle cx="595" cy="245" r="10.0" fill="#e9dcc6" opacity="0.49"/><circle cx="665" cy="245" r="10.0" fill="#e9dcc6" opacity="0.49"/><circle cx="735" cy="245" r="10.0" fill="#e9dcc6" opacity="0.49"/><circle cx="805" cy="245" r="10.0" fill="#e9dcc6" opacity="0.49"/><circle cx="875" cy="245" r="10.0" fill="#e9dcc6" opacity="0.49"/><circle cx="945" cy="245" r="10.0" fill="#e9dcc6" opacity="0.49"/><circle cx="1015" cy="245" r="10.0" fill="#e9dcc6" opacity="0.49"/><circle cx="35" cy="315" r="11.1" fill="#e3c08a" opacity="0.52"/><circle cx="105" cy="315" r="11.1" fill="#e3c08a" opacity="0.52"/><circle cx="175" cy="315" r="11.1" fill="#e3c08a" opacity="0.52"/><circle cx="245" cy="315" r="11.1" fill="#e3c08a" opacity="0.52"/><circle cx="315" cy="315" r="11.1" fill="#e3c08a" opacity="0.52"/><circle cx="385" cy="315" r="11.1" fill="#e3c08a" opacity="0.52"/><circle cx="455" cy="315" r="11.1" fill="#e3c08a" opacity="0.52"/><circle cx="525" cy="315" r="11.1" fill="#e3c08a" opacity="0.52"/><circle cx="595" cy="315" r="11.1" fill="#e3c08a" opacity="0.52"/><circle cx="665" cy="315" r="11.1" fill="#e3c08a" opacity="0.52"/><circle cx="735" cy="315" r="11.1" fill="#e3c08a" opacity="0.52"/><circle cx="805" cy="315" r="11.1" fill="#e3c08a" opacity="0.52"/><circle cx="875" cy="315" r="11.1" fill="#e3c08a" opacity="0.52"/><circle cx="945" cy="315" r="11.1" fill="#e3c08a" opacity="0.52"/><circle cx="1015" cy="315" r="11.1" fill="#e3c08a" opacity="0.52"/><circle cx="35" cy="385" r="12.3" fill="#e3c08a" opacity="0.54"/><circle cx="105" cy="385" r="12.3" fill="#e3c08a" opacity="0.54"/><circle cx="175" cy="385" r="12.3" fill="#e3c08a" opacity="0.54"/><circle cx="245" cy="385" r="12.3" fill="#e3c08a" opacity="0.54"/><circle cx="315" cy="385" r="12.3" fill="#e3c08a" opacity="0.54"/><circle cx="385" cy="385" r="12.3" fill="#e3c08a" opacity="0.54"/><circle cx="455" cy="385" r="12.3" fill="#e3c08a" opacity="0.54"/><circle cx="525" cy="385" r="12.3" fill="#e3c08a" opacity="0.54"/><circle cx="595" cy="385" r="12.3" fill="#e3c08a" opacity="0.54"/><circle cx="665" cy="385" r="12.3" fill="#e3c08a" opacity="0.54"/><circle cx="735" cy="385" r="12.3" fill="#e3c08a" opacity="0.54"/><circle cx="805" cy="385" r="12.3" fill="#e3c08a" opacity="0.54"/><circle cx="875" cy="385" r="12.3" fill="#e3c08a" opacity="0.54"/><circle cx="945" cy="385" r="12.3" fill="#e3c08a" opacity="0.54"/><circle cx="1015" cy="385" r="12.3" fill="#e3c08a" opacity="0.54"/><circle cx="35" cy="455" r="13.4" fill="#e3c08a" opacity="0.57"/><circle cx="105" cy="455" r="13.4" fill="#e3c08a" opacity="0.57"/><circle cx="175" cy="455" r="13.4" fill="#e3c08a" opacity="0.57"/><circle cx="245" cy="455" r="13.4" fill="#e3c08a" opacity="0.57"/><circle cx="315" cy="455" r="13.4" fill="#e3c08a" opacity="0.57"/><circle cx="385" cy="455" r="13.4" fill="#e3c08a" opacity="0.57"/><circle cx="455" cy="455" r="13.4" fill="#e3c08a" opacity="0.57"/><circle cx="525" cy="455" r="13.4" fill="#e3c08a" opacity="0.57"/><circle cx="595" cy="455" r="13.4" fill="#e3c08a" opacity="0.57"/><circle cx="665" cy="455" r="13.4" fill="#e3c08a" opacity="0.57"/><circle cx="735" cy="455" r="13.4" fill="#e3c08a" opacity="0.57"/><circle cx="805" cy="455" r="13.4" fill="#e3c08a" opacity="0.57"/><circle cx="875" cy="455" r="13.4" fill="#e3c08a" opacity="0.57"/><circle cx="945" cy="455" r="13.4" fill="#e3c08a" opacity="0.57"/><circle cx="1015" cy="455" r="13.4" fill="#e3c08a" opacity="0.57"/><circle cx="35" cy="525" r="14.6" fill="#e3c08a" opacity="0.59"/><circle cx="105" cy="525" r="14.6" fill="#e3c08a" opacity="0.59"/><circle cx="175" cy="525" r="14.6" fill="#e3c08a" opacity="0.59"/><circle cx="245" cy="525" r="14.6" fill="#e3c08a" opacity="0.59"/><circle cx="315" cy="525" r="14.6" fill="#e3c08a" opacity="0.59"/><circle cx="385" cy="525" r="14.6" fill="#e3c08a" opacity="0.59"/><circle cx="455" cy="525" r="14.6" fill="#e3c08a" opacity="0.59"/><circle cx="525" cy="525" r="14.6" fill="#e3c08a" opacity="0.59"/><circle cx="595" cy="525" r="14.6" fill="#e3c08a" opacity="0.59"/><circle cx="665" cy="525" r="14.6" fill="#e3c08a" opacity="0.59"/><circle cx="735" cy="525" r="14.6" fill="#e3c08a" opacity="0.59"/><circle cx="805" cy="525" r="14.6" fill="#e3c08a" opacity="0.59"/><circle cx="875" cy="525" r="14.6" fill="#e3c08a" opacity="0.59"/><circle cx="945" cy="525" r="14.6" fill="#e3c08a" opacity="0.59"/><circle cx="1015" cy="525" r="14.6" fill="#e3c08a" opacity="0.59"/><circle cx="35" cy="595" r="15.7" fill="#e0a974" opacity="0.62"/><circle cx="105" cy="595" r="15.7" fill="#e0a974" opacity="0.62"/><circle cx="175" cy="595" r="15.7" fill="#e0a974" opacity="0.62"/><circle cx="245" cy="595" r="15.7" fill="#e0a974" opacity="0.62"/><circle cx="315" cy="595" r="15.7" fill="#e0a974" opacity="0.62"/><circle cx="385" cy="595" r="15.7" fill="#e0a974" opacity="0.62"/><circle cx="455" cy="595" r="15.7" fill="#e0a974" opacity="0.62"/><circle cx="525" cy="595" r="15.7" fill="#e0a974" opacity="0.62"/><circle cx="595" cy="595" r="15.7" fill="#e0a974" opacity="0.62"/><circle cx="665" cy="595" r="15.7" fill="#e0a974" opacity="0.62"/><circle cx="735" cy="595" r="15.7" fill="#e0a974" opacity="0.62"/><circle cx="805" cy="595" r="15.7" fill="#e0a974" opacity="0.62"/><circle cx="875" cy="595" r="15.7" fill="#e0a974" opacity="0.62"/><circle cx="945" cy="595" r="15.7" fill="#e0a974" opacity="0.62"/><circle cx="1015" cy="595" r="15.7" fill="#e0a974" opacity="0.62"/><circle cx="35" cy="665" r="16.8" fill="#e0a974" opacity="0.65"/><circle cx="105" cy="665" r="16.8" fill="#e0a974" opacity="0.65"/><circle cx="175" cy="665" r="16.8" fill="#e0a974" opacity="0.65"/><circle cx="245" cy="665" r="16.8" fill="#e0a974" opacity="0.65"/><circle cx="315" cy="665" r="16.8" fill="#e0a974" opacity="0.65"/><circle cx="385" cy="665" r="16.8" fill="#e0a974" opacity="0.65"/><circle cx="455" cy="665" r="16.8" fill="#e0a974" opacity="0.65"/><circle cx="525" cy="665" r="16.8" fill="#e0a974" opacity="0.65"/><circle cx="595" cy="665" r="16.8" fill="#e0a974" opacity="0.65"/><circle cx="665" cy="665" r="16.8" fill="#e0a974" opacity="0.65"/><circle cx="735" cy="665" r="16.8" fill="#e0a974" opacity="0.65"/><circle cx="805" cy="665" r="16.8" fill="#e0a974" opacity="0.65"/><circle cx="875" cy="665" r="16.8" fill="#e0a974" opacity="0.65"/><circle cx="945" cy="665" r="16.8" fill="#e0a974" opacity="0.65"/><circle cx="1015" cy="665" r="16.8" fill="#e0a974" opacity="0.65"/><circle cx="35" cy="735" r="18.0" fill="#e0a974" opacity="0.67"/><circle cx="105" cy="735" r="18.0" fill="#e0a974" opacity="0.67"/><circle cx="175" cy="735" r="18.0" fill="#e0a974" opacity="0.67"/><circle cx="245" cy="735" r="18.0" fill="#e0a974" opacity="0.67"/><circle cx="315" cy="735" r="18.0" fill="#e0a974" opacity="0.67"/><circle cx="385" cy="735" r="18.0" fill="#e0a974" opacity="0.67"/><circle cx="455" cy="735" r="18.0" fill="#e0a974" opacity="0.67"/><circle cx="525" cy="735" r="18.0" fill="#e0a974" opacity="0.67"/><circle cx="595" cy="735" r="18.0" fill="#e0a974" opacity="0.67"/><circle cx="665" cy="735" r="18.0" fill="#e0a974" opacity="0.67"/><circle cx="735" cy="735" r="18.0" fill="#e0a974" opacity="0.67"/><circle cx="805" cy="735" r="18.0" fill="#e0a974" opacity="0.67"/><circle cx="875" cy="735" r="18.0" fill="#e0a974" opacity="0.67"/><circle cx="945" cy="735" r="18.0" fill="#e0a974" opacity="0.67"/><circle cx="1015" cy="735" r="18.0" fill="#e0a974" opacity="0.67"/><circle cx="35" cy="805" r="19.1" fill="#e0a974" opacity="0.70"/><circle cx="105" cy="805" r="19.1" fill="#e0a974" opacity="0.70"/><circle cx="175" cy="805" r="19.1" fill="#e0a974" opacity="0.70"/><circle cx="245" cy="805" r="19.1" fill="#e0a974" opacity="0.70"/><circle cx="315" cy="805" r="19.1" fill="#e0a974" opacity="0.70"/><circle cx="385" cy="805" r="19.1" fill="#e0a974" opacity="0.70"/><circle cx="455" cy="805" r="19.1" fill="#e0a974" opacity="0.70"/><circle cx="525" cy="805" r="19.1" fill="#e0a974" opacity="0.70"/><circle cx="595" cy="805" r="19.1" fill="#e0a974" opacity="0.70"/><circle cx="665" cy="805" r="19.1" fill="#e0a974" opacity="0.70"/><circle cx="735" cy="805" r="19.1" fill="#e0a974" opacity="0.70"/><circle cx="805" cy="805" r="19.1" fill="#e0a974" opacity="0.70"/><circle cx="875" cy="805" r="19.1" fill="#e0a974" opacity="0.70"/><circle cx="945" cy="805" r="19.1" fill="#e0a974" opacity="0.70"/><circle cx="1015" cy="805" r="19.1" fill="#e0a974" opacity="0.70"/><circle cx="35" cy="875" r="20.3" fill="#c97b4a" opacity="0.72"/><circle cx="105" cy="875" r="20.3" fill="#c97b4a" opacity="0.72"/><circle cx="175" cy="875" r="20.3" fill="#c97b4a" opacity="0.72"/><circle cx="245" cy="875" r="20.3" fill="#c97b4a" opacity="0.72"/><circle cx="315" cy="875" r="20.3" fill="#c97b4a" opacity="0.72"/><circle cx="385" cy="875" r="20.3" fill="#c97b4a" opacity="0.72"/><circle cx="455" cy="875" r="20.3" fill="#c97b4a" opacity="0.72"/><circle cx="525" cy="875" r="20.3" fill="#c97b4a" opacity="0.72"/><circle cx="595" cy="875" r="20.3" fill="#c97b4a" opacity="0.72"/><circle cx="665" cy="875" r="20.3" fill="#c97b4a" opacity="0.72"/><circle cx="735" cy="875" r="20.3" fill="#c97b4a" opacity="0.72"/><circle cx="805" cy="875" r="20.3" fill="#c97b4a" opacity="0.72"/><circle cx="875" cy="875" r="20.3" fill="#c97b4a" opacity="0.72"/><circle cx="945" cy="875" r="20.3" fill="#c97b4a" opacity="0.72"/><circle cx="1015" cy="875" r="20.3" fill="#c97b4a" opacity="0.72"/><circle cx="35" cy="945" r="21.4" fill="#c97b4a" opacity="0.75"/><circle cx="105" cy="945" r="21.4" fill="#c97b4a" opacity="0.75"/><circle cx="175" cy="945" r="21.4" fill="#c97b4a" opacity="0.75"/><circle cx="245" cy="945" r="21.4" fill="#c97b4a" opacity="0.75"/><circle cx="315" cy="945" r="21.4" fill="#c97b4a" opacity="0.75"/><circle cx="385" cy="945" r="21.4" fill="#c97b4a" opacity="0.75"/><circle cx="455" cy="945" r="21.4" fill="#c97b4a" opacity="0.75"/><circle cx="525" cy="945" r="21.4" fill="#c97b4a" opacity="0.75"/><circle cx="595" cy="945" r="21.4" fill="#c97b4a" opacity="0.75"/><circle cx="665" cy="945" r="21.4" fill="#c97b4a" opacity="0.75"/><circle cx="735" cy="945" r="21.4" fill="#c97b4a" opacity="0.75"/><circle cx="805" cy="945" r="21.4" fill="#c97b4a" opacity="0.75"/><circle cx="875" cy="945" r="21.4" fill="#c97b4a" opacity="0.75"/><circle cx="945" cy="945" r="21.4" fill="#c97b4a" opacity="0.75"/><circle cx="1015" cy="945" r="21.4" fill="#c97b4a" opacity="0.75"/><circle cx="35" cy="1015" r="22.5" fill="#c97b4a" opacity="0.78"/><circle cx="105" cy="1015" r="22.5" fill="#c97b4a" opacity="0.78"/><circle cx="175" cy="1015" r="22.5" fill="#c97b4a" opacity="0.78"/><circle cx="245" cy="1015" r="22.5" fill="#c97b4a" opacity="0.78"/><circle cx="315" cy="1015" r="22.5" fill="#c97b4a" opacity="0.78"/><circle cx="385" cy="1015" r="22.5" fill="#c97b4a" opacity="0.78"/><circle cx="455" cy="1015" r="22.5" fill="#c97b4a" opacity="0.78"/><circle cx="525" cy="1015" r="22.5" fill="#c97b4a" opacity="0.78"/><circle cx="595" cy="1015" r="22.5" fill="#c97b4a" opacity="0.78"/><circle cx="665" cy="1015" r="22.5" fill="#c97b4a" opacity="0.78"/><circle cx="735" cy="1015" r="22.5" fill="#c97b4a" opacity="0.78"/><circle cx="805" cy="1015" r="22.5" fill="#c97b4a" opacity="0.78"/><circle cx="875" cy="1015" r="22.5" fill="#c97b4a" opacity="0.78"/><circle cx="945" cy="1015" r="22.5" fill="#c97b4a" opacity="0.78"/><circle cx="1015" cy="1015" r="22.5" fill="#c97b4a" opacity="0.78"/><circle cx="35" cy="1085" r="23.7" fill="#a8542b" opacity="0.80"/><circle cx="105" cy="1085" r="23.7" fill="#a8542b" opacity="0.80"/><circle cx="175" cy="1085" r="23.7" fill="#a8542b" opacity="0.80"/><circle cx="245" cy="1085" r="23.7" fill="#a8542b" opacity="0.80"/><circle cx="315" cy="1085" r="23.7" fill="#a8542b" opacity="0.80"/><circle cx="385" cy="1085" r="23.7" fill="#a8542b" opacity="0.80"/><circle cx="455" cy="1085" r="23.7" fill="#a8542b" opacity="0.80"/><circle cx="525" cy="1085" r="23.7" fill="#a8542b" opacity="0.80"/><circle cx="595" cy="1085" r="23.7" fill="#a8542b" opacity="0.80"/><circle cx="665" cy="1085" r="23.7" fill="#a8542b" opacity="0.80"/><circle cx="735" cy="1085" r="23.7" fill="#a8542b" opacity="0.80"/><circle cx="805" cy="1085" r="23.7" fill="#a8542b" opacity="0.80"/><circle cx="875" cy="1085" r="23.7" fill="#a8542b" opacity="0.80"/><circle cx="945" cy="1085" r="23.7" fill="#a8542b" opacity="0.80"/><circle cx="1015" cy="1085" r="23.7" fill="#a8542b" opacity="0.80"/><circle cx="35" cy="1155" r="24.8" fill="#a8542b" opacity="0.83"/><circle cx="105" cy="1155" r="24.8" fill="#a8542b" opacity="0.83"/><circle cx="175" cy="1155" r="24.8" fill="#a8542b" opacity="0.83"/><circle cx="245" cy="1155" r="24.8" fill="#a8542b" opacity="0.83"/><circle cx="315" cy="1155" r="24.8" fill="#a8542b" opacity="0.83"/><circle cx="385" cy="1155" r="24.8" fill="#a8542b" opacity="0.83"/><circle cx="455" cy="1155" r="24.8" fill="#a8542b" opacity="0.83"/><circle cx="525" cy="1155" r="24.8" fill="#a8542b" opacity="0.83"/><circle cx="595" cy="1155" r="24.8" fill="#a8542b" opacity="0.83"/><circle cx="665" cy="1155" r="24.8" fill="#a8542b" opacity="0.83"/><circle cx="735" cy="1155" r="24.8" fill="#a8542b" opacity="0.83"/><circle cx="805" cy="1155" r="24.8" fill="#a8542b" opacity="0.83"/><circle cx="875" cy="1155" r="24.8" fill="#a8542b" opacity="0.83"/><circle cx="945" cy="1155" r="24.8" fill="#a8542b" opacity="0.83"/><circle cx="1015" cy="1155" r="24.8" fill="#a8542b" opacity="0.83"/><circle cx="35" cy="1225" r="26.0" fill="#a8542b" opacity="0.85"/><circle cx="105" cy="1225" r="26.0" fill="#a8542b" opacity="0.85"/><circle cx="175" cy="1225" r="26.0" fill="#a8542b" opacity="0.85"/><circle cx="245" cy="1225" r="26.0" fill="#a8542b" opacity="0.85"/><circle cx="315" cy="1225" r="26.0" fill="#a8542b" opacity="0.85"/><circle cx="385" cy="1225" r="26.0" fill="#a8542b" opacity="0.85"/><circle cx="455" cy="1225" r="26.0" fill="#a8542b" opacity="0.85"/><circle cx="525" cy="1225" r="26.0" fill="#a8542b" opacity="0.85"/><circle cx="595" cy="1225" r="26.0" fill="#a8542b" opacity="0.85"/><circle cx="665" cy="1225" r="26.0" fill="#a8542b" opacity="0.85"/><circle cx="735" cy="1225" r="26.0" fill="#a8542b" opacity="0.85"/><circle cx="805" cy="1225" r="26.0" fill="#a8542b" opacity="0.85"/><circle cx="875" cy="1225" r="26.0" fill="#a8542b" opacity="0.85"/><circle cx="945" cy="1225" r="26.0" fill="#a8542b" opacity="0.85"/><circle cx="1015" cy="1225" r="26.0" fill="#a8542b" opacity="0.85"/><circle cx="35" cy="1295" r="27.1" fill="#a8542b" opacity="0.88"/><circle cx="105" cy="1295" r="27.1" fill="#a8542b" opacity="0.88"/><circle cx="175" cy="1295" r="27.1" fill="#a8542b" opacity="0.88"/><circle cx="245" cy="1295" r="27.1" fill="#a8542b" opacity="0.88"/><circle cx="315" cy="1295" r="27.1" fill="#a8542b" opacity="0.88"/><circle cx="385" cy="1295" r="27.1" fill="#a8542b" opacity="0.88"/><circle cx="455" cy="1295" r="27.1" fill="#a8542b" opacity="0.88"/><circle cx="525" cy="1295" r="27.1" fill="#a8542b" opacity="0.88"/><circle cx="595" cy="1295" r="27.1" fill="#a8542b" opacity="0.88"/><circle cx="665" cy="1295" r="27.1" fill="#a8542b" opacity="0.88"/><circle cx="735" cy="1295" r="27.1" fill="#a8542b" opacity="0.88"/><circle cx="805" cy="1295" r="27.1" fill="#a8542b" opacity="0.88"/><circle cx="875" cy="1295" r="27.1" fill="#a8542b" opacity="0.88"/><circle cx="945" cy="1295" r="27.1" fill="#a8542b" opacity="0.88"/><circle cx="1015" cy="1295" r="27.1" fill="#a8542b" opacity="0.88"/></svg>